<svg width="24" height="25" viewBox="0 0 24 25" fill="none" xmlns="http://www.w3.org/2000/svg">
<path d="M5.05798 19.1409L7.93798 14.5349M10.061 11.1379L12.938 6.53394M10.0649 14.5399L12.9409 19.1399M15.063 6.53491L17.944 11.1449M6 20.835C6 20.3045 5.78929 19.7958 5.41421 19.4207C5.03914 19.0457 4.53043 18.835 4 18.835C3.46957 18.835 2.96086 19.0457 2.58579 19.4207C2.21071 19.7958 2 20.3045 2 20.835C2 21.3654 2.21071 21.8741 2.58579 22.2492C2.96086 22.6242 3.46957 22.835 4 22.835C4.53043 22.835 5.03914 22.6242 5.41421 22.2492C5.78929 21.8741 6 21.3654 6 20.835ZM16 4.83496C16 4.30453 15.7893 3.79582 15.4142 3.42075C15.0391 3.04567 14.5304 2.83496 14 2.83496C13.4696 2.83496 12.9609 3.04567 12.5858 3.42075C12.2107 3.79582 12 4.30453 12 4.83496C12 5.36539 12.2107 5.8741 12.5858 6.24917C12.9609 6.62425 13.4696 6.83496 14 6.83496C14.5304 6.83496 15.0391 6.62425 15.4142 6.24917C15.7893 5.8741 16 5.36539 16 4.83496ZM16 20.835C16 20.3045 15.7893 19.7958 15.4142 19.4207C15.0391 19.0457 14.5304 18.835 14 18.835C13.4696 18.835 12.9609 19.0457 12.5858 19.4207C12.2107 19.7958 12 20.3045 12 20.835C12 21.3654 12.2107 21.8741 12.5858 22.2492C12.9609 22.6242 13.4696 22.835 14 22.835C14.5304 22.835 15.0391 22.6242 15.4142 22.2492C15.7893 21.8741 16 21.3654 16 20.835ZM11 12.835C11 12.3045 10.7893 11.7958 10.4142 11.4207C10.0391 11.0457 9.53043 10.835 9 10.835C8.46957 10.835 7.96086 11.0457 7.58579 11.4207C7.21071 11.7958 7 12.3045 7 12.835C7 13.3654 7.21071 13.8741 7.58579 14.2492C7.96086 14.6242 8.46957 14.835 9 14.835C9.53043 14.835 10.0391 14.6242 10.4142 14.2492C10.7893 13.8741 11 13.3654 11 12.835ZM21 12.835C21 12.3045 20.7893 11.7958 20.4142 11.4207C20.0391 11.0457 19.5304 10.835 19 10.835C18.4696 10.835 17.9609 11.0457 17.5858 11.4207C17.2107 11.7958 17 12.3045 17 12.835C17 13.3654 17.2107 13.8741 17.5858 14.2492C17.9609 14.6242 18.4696 14.835 19 14.835C19.5304 14.835 20.0391 14.6242 20.4142 14.2492C20.7893 13.8741 21 13.3654 21 12.835Z" stroke="#007BFF" stroke-width="2" stroke-linecap="round" stroke-linejoin="round"/>
</svg>
