<svg width="24" height="25" viewBox="0 0 24 25" fill="none" xmlns="http://www.w3.org/2000/svg">
<path d="M9 5.83496H7C6.46957 5.83496 5.96086 6.04567 5.58579 6.42075C5.21071 6.79582 5 7.30453 5 7.83496V19.835C5 20.3654 5.21071 20.8741 5.58579 21.2492C5.96086 21.6242 6.46957 21.835 7 21.835H17C17.5304 21.835 18.0391 21.6242 18.4142 21.2492C18.7893 20.8741 19 20.3654 19 19.835V7.83496C19 7.30453 18.7893 6.79582 18.4142 6.42075C18.0391 6.04567 17.5304 5.83496 17 5.83496H15M9 5.83496C9 5.30453 9.21071 4.79582 9.58579 4.42075C9.96086 4.04567 10.4696 3.83496 11 3.83496H13C13.5304 3.83496 14.0391 4.04567 14.4142 4.42075C14.7893 4.79582 15 5.30453 15 5.83496M9 5.83496C9 6.36539 9.21071 6.8741 9.58579 7.24917C9.96086 7.62425 10.4696 7.83496 11 7.83496H13C13.5304 7.83496 14.0391 7.62425 14.4142 7.24917C14.7893 6.8741 15 6.36539 15 5.83496M9 17.835V13.835M12 17.835V16.835M15 17.835V15.835" stroke="#007BFF" stroke-width="2" stroke-linecap="round" stroke-linejoin="round"/>
</svg>
