<svg width="61" height="65" viewBox="0 0 61 65" fill="none" xmlns="http://www.w3.org/2000/svg">
<path d="M18.251 48.8304C15.1572 48.8304 12.1902 47.5661 10.0026 45.3157C7.81493 43.0652 6.58594 40.013 6.58594 36.8304C6.58594 33.6478 7.81493 30.5956 10.0026 28.3451C12.1902 26.0947 15.1572 24.8304 18.251 24.8304C18.9817 21.3295 21.1192 18.253 24.1934 16.2776C25.7156 15.2995 27.4219 14.6212 29.2149 14.2814C31.008 13.9415 32.8526 13.9469 34.6435 14.2971C36.4344 14.6473 38.1365 15.3354 39.6526 16.3223C41.1687 17.3092 42.4691 18.5755 43.4797 20.0489C44.4902 21.5222 45.191 23.1738 45.5421 24.9093C45.8932 26.6448 45.8877 28.4303 45.5259 30.1637H48.0054C50.307 30.1637 52.5144 31.1471 54.1419 32.8974C55.7694 34.6477 56.6838 37.0217 56.6838 39.4971C56.6838 41.9724 55.7694 44.3464 54.1419 46.0967C52.5144 47.8471 50.307 48.8304 48.0054 48.8304H45.5259M23.2102 40.8305L30.6488 32.8305M30.6488 32.8305L38.0874 40.8305M30.6488 32.8305V56.8305" stroke="#007BFF" stroke-width="3.62321" stroke-linecap="round" stroke-linejoin="round"/>
</svg>
