<svg width="24" height="25" viewBox="0 0 24 25" fill="none" xmlns="http://www.w3.org/2000/svg">
<path d="M4 6.83496C4 8.49196 7.582 9.83496 12 9.83496C16.418 9.83496 20 8.49196 20 6.83496M4 6.83496C4 5.17796 7.582 3.83496 12 3.83496C16.418 3.83496 20 5.17796 20 6.83496M4 6.83496V12.835M20 6.83496V12.335M4 12.835C4 14.492 7.582 15.835 12 15.835C12.21 15.835 12.42 15.832 12.626 15.825M4 12.835V18.835C4 20.492 7.582 21.835 12 21.835M19.001 21.835C18.4705 21.835 17.9618 21.6242 17.5868 21.2492C17.2117 20.8741 17.001 20.3654 17.001 19.835C17.001 19.3045 17.2117 18.7958 17.5868 18.4207C17.9618 18.0457 18.4705 17.835 19.001 17.835M19.001 21.835C19.5314 21.835 20.0401 21.6242 20.4152 21.2492C20.7903 20.8741 21.001 20.3654 21.001 19.835C21.001 19.3045 20.7903 18.7958 20.4152 18.4207C20.0401 18.0457 19.5314 17.835 19.001 17.835M19.001 21.835V23.335M19.001 17.835V16.335M22.0319 18.085L20.7329 18.835M17.27 20.835L15.97 21.585M15.97 18.085L17.27 18.835M20.7329 20.835L22.0329 21.585" stroke="#007BFF" stroke-width="2" stroke-linecap="round" stroke-linejoin="round"/>
</svg>
