<svg width="24" height="25" viewBox="0 0 24 25" fill="none" xmlns="http://www.w3.org/2000/svg">
<path d="M4 6.83496C4 7.63061 4.84285 8.39367 6.34315 8.95628C7.84344 9.51889 9.87827 9.83496 12 9.83496C14.1217 9.83496 16.1566 9.51889 17.6569 8.95628C19.1571 8.39367 20 7.63061 20 6.83496M4 6.83496C4 6.03931 4.84285 5.27625 6.34315 4.71364C7.84344 4.15103 9.87827 3.83496 12 3.83496C14.1217 3.83496 16.1566 4.15103 17.6569 4.71364C19.1571 5.27625 20 6.03931 20 6.83496M4 6.83496V12.835M20 6.83496V12.835M4 12.835C4 13.6306 4.84285 14.3937 6.34315 14.9563C7.84344 15.5189 9.87827 15.835 12 15.835C14.1217 15.835 16.1566 15.5189 17.6569 14.9563C19.1571 14.3937 20 13.6306 20 12.835M4 12.835V18.835C4 19.6306 4.84285 20.3937 6.34315 20.9563C7.84344 21.5189 9.87827 21.835 12 21.835C14.1217 21.835 16.1566 21.5189 17.6569 20.9563C19.1571 20.3937 20 19.6306 20 18.835V12.835" stroke="#007BFF" stroke-width="2" stroke-linecap="round" stroke-linejoin="round"/>
</svg>
