<svg width="59" height="65" viewBox="0 0 59 65" fill="none" xmlns="http://www.w3.org/2000/svg">
<path d="M38.8618 48.7639C40.1771 48.7639 41.4384 49.3258 42.3684 50.326C43.2984 51.3262 43.8209 52.6827 43.8209 54.0972C43.8209 52.6827 44.3434 51.3262 45.2734 50.326C46.2034 49.3258 47.4648 48.7639 48.78 48.7639C47.4648 48.7639 46.2034 48.202 45.2734 47.2018C44.3434 46.2016 43.8209 44.845 43.8209 43.4305C43.8209 44.845 43.2984 46.2016 42.3684 47.2018C41.4384 48.202 40.1771 48.7639 38.8618 48.7639ZM38.8618 16.7639C40.1771 16.7639 41.4384 17.3258 42.3684 18.326C43.2984 19.3262 43.8209 20.6827 43.8209 22.0972C43.8209 20.6827 44.3434 19.3262 45.2734 18.326C46.2034 17.3258 47.4648 16.7639 48.78 16.7639C47.4648 16.7639 46.2034 16.202 45.2734 15.2018C44.3434 14.2016 43.8209 12.845 43.8209 11.4305C43.8209 12.845 43.2984 14.2016 42.3684 15.2018C41.4384 16.202 40.1771 16.7639 38.8618 16.7639ZM21.5051 48.7639C21.5051 44.5204 23.0725 40.4507 25.8626 37.4502C28.6526 34.4496 32.4366 32.7639 36.3823 32.7639C32.4366 32.7639 28.6526 31.0782 25.8626 28.0776C23.0725 25.077 21.5051 21.0073 21.5051 16.7639C21.5051 21.0073 19.9377 25.077 17.1477 28.0776C14.3577 31.0782 10.5736 32.7639 6.62793 32.7639C10.5736 32.7639 14.3577 34.4496 17.1477 37.4502C19.9377 40.4507 21.5051 44.5204 21.5051 48.7639Z" stroke="#007BFF" stroke-width="3.62321" stroke-linecap="round" stroke-linejoin="round"/>
</svg>
