<svg width="23" height="34" viewBox="0 0 23 34" fill="none" xmlns="http://www.w3.org/2000/svg">
<path d="M3.74892 5.14111C3.74892 2.47987 5.91687 0.32251 8.59117 0.32251H13.5096C16.1839 0.32251 18.3519 2.47987 18.3519 5.14111V17.0595C18.3519 21.0723 15.0829 24.3253 11.0504 24.3253C7.0179 24.3253 3.74892 21.0723 3.74892 17.0595V5.14111Z" fill="#007BFF"/>
<path d="M7.03897 24.5161C6.71371 24.402 6.35153 24.5062 6.13761 24.7754L1.69499 30.3659C1.43893 30.6882 1.29962 31.087 1.29962 31.4978C1.29962 32.5055 2.12059 33.3225 3.13331 33.3225L10.2434 33.3225C10.6891 33.3225 11.0504 32.9629 11.0504 32.5194V31.6666C11.0504 31.223 10.6891 30.8635 10.2434 30.8635L6.40136 30.8635C5.73762 30.8635 5.35765 30.1105 5.75405 29.5808L8.36846 26.0866C8.69325 25.6525 8.50239 25.0295 7.98947 24.8496L7.03897 24.5161Z" fill="#007BFF"/>
<path d="M0 11.7378C0 11.2942 0.361325 10.9347 0.807041 10.9347H2.01822C2.46394 10.9347 2.82526 11.2942 2.82526 11.7378V16.4538C2.82526 16.8974 2.46394 17.2569 2.01822 17.2569H0.807041C0.361325 17.2569 0 16.8974 0 16.4538V11.7378Z" fill="#007BFF"/>
<path d="M19.2755 11.7378C19.2755 11.2942 19.6368 10.9347 20.0826 10.9347H21.2937C21.7395 10.9347 22.1008 11.2942 22.1008 11.7378V16.4538C22.1008 16.8974 21.7395 17.2569 21.2937 17.2569H20.0826C19.6368 17.2569 19.2755 16.8974 19.2755 16.4538V11.7378Z" fill="#007BFF"/>
</svg>
