<svg width="187" height="34" viewBox="0 0 187 34" fill="none" xmlns="http://www.w3.org/2000/svg">
<path d="M184.225 10.674H186.752V25.1096H184.225V10.674Z" fill="#007BFF"/>
<path d="M173.601 10.674H176.29L181.85 25.1096H179.141L177.786 21.2884H172.024L170.67 25.1096H168.062L173.601 10.674ZM172.712 19.3677H177.119L174.956 13.1608H174.895L172.712 19.3677Z" fill="#007BFF"/>
<path d="M154.807 10.674H157.111V16.0317H157.152C157.435 15.56 157.853 15.1691 158.405 14.8591C158.972 14.5356 159.598 14.3739 160.286 14.3739C161.431 14.3739 162.334 14.6704 162.995 15.2634C163.655 15.8565 163.986 16.7461 163.986 17.9322V25.1096H161.681V18.5388C161.654 17.7166 161.479 17.1235 161.155 16.7596C160.832 16.3822 160.326 16.1935 159.639 16.1935C159.248 16.1935 158.897 16.2676 158.587 16.4159C158.277 16.5507 158.015 16.7461 157.799 17.0022C157.583 17.2448 157.415 17.5346 157.293 17.8716C157.172 18.2085 157.111 18.5657 157.111 18.9431V25.1096H154.807V10.674Z" fill="#007BFF"/>
<path d="M149.628 18.1546C149.534 17.5076 149.271 17.0224 148.839 16.6989C148.422 16.3619 147.889 16.1935 147.242 16.1935C146.946 16.1935 146.629 16.2474 146.292 16.3552C145.955 16.4496 145.645 16.6383 145.362 16.9213C145.079 17.1909 144.843 17.575 144.654 18.0737C144.466 18.559 144.371 19.1992 144.371 19.9945C144.371 20.4258 144.418 20.8571 144.513 21.2884C144.621 21.7197 144.782 22.1039 144.998 22.4408C145.227 22.7778 145.517 23.0541 145.867 23.2698C146.218 23.472 146.642 23.573 147.141 23.573C147.815 23.573 148.368 23.3641 148.799 22.9463C149.244 22.5285 149.52 21.9421 149.628 21.1873H151.933C151.717 22.5487 151.198 23.5933 150.376 24.3211C149.567 25.0355 148.489 25.3927 147.141 25.3927C146.319 25.3927 145.591 25.2579 144.958 24.9883C144.338 24.7053 143.812 24.3279 143.381 23.8561C142.949 23.3709 142.619 22.798 142.39 22.1376C142.174 21.4771 142.066 20.7627 142.066 19.9945C142.066 19.2127 142.174 18.4781 142.39 17.7907C142.606 17.1033 142.929 16.5102 143.36 16.0115C143.792 15.4993 144.324 15.1017 144.958 14.8186C145.605 14.5221 146.359 14.3738 147.222 14.3738C147.829 14.3738 148.401 14.4547 148.941 14.6165C149.493 14.7647 149.978 14.9939 150.396 15.3039C150.828 15.6139 151.178 16.0048 151.448 16.4765C151.717 16.9483 151.879 17.5076 151.933 18.1546H149.628Z" fill="#007BFF"/>
<path d="M137.515 18.9633C137.488 18.5994 137.407 18.249 137.272 17.912C137.151 17.575 136.976 17.2852 136.747 17.0426C136.531 16.7865 136.261 16.5843 135.938 16.4361C135.628 16.2743 135.277 16.1935 134.887 16.1935C134.482 16.1935 134.112 16.2676 133.775 16.4159C133.451 16.5506 133.168 16.7461 132.925 17.0022C132.696 17.2448 132.508 17.5346 132.359 17.8716C132.224 18.2085 132.15 18.5725 132.137 18.9633H137.515ZM132.137 20.4797C132.137 20.884 132.191 21.2749 132.299 21.6523C132.42 22.0297 132.595 22.36 132.824 22.643C133.053 22.9261 133.343 23.1552 133.694 23.3304C134.044 23.4922 134.462 23.573 134.947 23.573C135.621 23.573 136.16 23.4315 136.565 23.1485C136.982 22.8519 137.292 22.4139 137.495 21.8343H139.678C139.557 22.4004 139.348 22.9059 139.051 23.3507C138.755 23.7954 138.398 24.1729 137.98 24.4829C137.562 24.7794 137.09 25.0018 136.565 25.1501C136.052 25.3118 135.513 25.3927 134.947 25.3927C134.125 25.3927 133.397 25.2579 132.764 24.9883C132.13 24.7187 131.591 24.3413 131.146 23.8561C130.715 23.3709 130.385 22.7913 130.156 22.1173C129.94 21.4434 129.832 20.7021 129.832 19.8934C129.832 19.152 129.947 18.4511 130.176 17.7907C130.418 17.1168 130.755 16.5304 131.187 16.0317C131.631 15.5195 132.164 15.1152 132.784 14.8186C133.404 14.5221 134.105 14.3738 134.887 14.3738C135.709 14.3738 136.443 14.5491 137.09 14.8995C137.751 15.2365 138.297 15.688 138.728 16.2541C139.159 16.8202 139.469 17.4739 139.658 18.2153C139.86 18.9431 139.914 19.6979 139.82 20.4797H132.137Z" fill="#007BFF"/>
<path d="M125.281 18.9633C125.254 18.5994 125.173 18.249 125.038 17.912C124.917 17.575 124.741 17.2852 124.512 17.0426C124.297 16.7865 124.027 16.5843 123.703 16.4361C123.393 16.2743 123.043 16.1935 122.652 16.1935C122.248 16.1935 121.877 16.2676 121.54 16.4159C121.217 16.5506 120.934 16.7461 120.691 17.0022C120.462 17.2448 120.273 17.5346 120.125 17.8716C119.99 18.2085 119.916 18.5725 119.903 18.9633H125.281ZM119.903 20.4797C119.903 20.884 119.956 21.2749 120.064 21.6523C120.186 22.0297 120.361 22.36 120.59 22.643C120.819 22.9261 121.109 23.1552 121.459 23.3304C121.81 23.4922 122.228 23.573 122.713 23.573C123.387 23.573 123.926 23.4315 124.33 23.1485C124.748 22.8519 125.058 22.4139 125.26 21.8343H127.444C127.323 22.4004 127.114 22.9059 126.817 23.3507C126.521 23.7954 126.163 24.1729 125.746 24.4829C125.328 24.7794 124.856 25.0018 124.33 25.1501C123.818 25.3118 123.279 25.3927 122.713 25.3927C121.891 25.3927 121.163 25.2579 120.529 24.9883C119.896 24.7187 119.357 24.3413 118.912 23.8561C118.481 23.3709 118.15 22.7913 117.921 22.1173C117.705 21.4434 117.598 20.7021 117.598 19.8934C117.598 19.152 117.712 18.4511 117.941 17.7907C118.184 17.1168 118.521 16.5304 118.952 16.0317C119.397 15.5195 119.929 15.1152 120.549 14.8186C121.17 14.5221 121.87 14.3738 122.652 14.3738C123.474 14.3738 124.209 14.5491 124.856 14.8995C125.516 15.2365 126.062 15.688 126.494 16.2541C126.925 16.8202 127.235 17.4739 127.424 18.2153C127.626 18.9431 127.68 19.6979 127.585 20.4797H119.903Z" fill="#007BFF"/>
<path d="M104.804 14.6569H106.987V16.0722H107.028C107.351 15.4656 107.803 15.0343 108.382 14.7782C108.962 14.5086 109.589 14.3738 110.263 14.3738C111.085 14.3738 111.799 14.5221 112.406 14.8186C113.026 15.1017 113.538 15.4993 113.942 16.0115C114.347 16.5102 114.65 17.0965 114.852 17.7705C115.054 18.4444 115.155 19.1655 115.155 19.9338C115.155 20.6347 115.061 21.3154 114.872 21.9758C114.697 22.6363 114.421 23.2226 114.043 23.7348C113.679 24.2335 113.214 24.6379 112.648 24.9479C112.082 25.2444 111.415 25.3927 110.647 25.3927C110.31 25.3927 109.973 25.359 109.636 25.2916C109.299 25.2377 108.975 25.1433 108.665 25.0085C108.355 24.8737 108.066 24.7053 107.796 24.5031C107.54 24.2874 107.324 24.0381 107.149 23.755H107.109V28.9713H104.804V14.6569ZM112.85 19.8934C112.85 19.4216 112.79 18.9633 112.669 18.5185C112.547 18.0737 112.365 17.6829 112.123 17.3459C111.88 16.9954 111.577 16.7191 111.213 16.517C110.849 16.3013 110.431 16.1935 109.959 16.1935C108.989 16.1935 108.254 16.5304 107.756 17.2044C107.27 17.8783 107.028 18.7746 107.028 19.8934C107.028 20.419 107.088 20.911 107.21 21.3693C107.344 21.8141 107.54 22.1982 107.796 22.5217C108.052 22.8452 108.355 23.1013 108.706 23.29C109.07 23.4787 109.488 23.573 109.959 23.573C110.485 23.573 110.93 23.4652 111.294 23.2496C111.658 23.0339 111.954 22.7576 112.183 22.4206C112.426 22.0702 112.594 21.6793 112.689 21.248C112.797 20.8032 112.85 20.3516 112.85 19.8934Z" fill="#007BFF"/>
<path d="M94.9972 21.7535C95.0646 22.4274 95.3207 22.8992 95.7655 23.1687C96.2103 23.4383 96.7427 23.5731 97.3628 23.5731C97.5784 23.5731 97.821 23.5596 98.0906 23.5327C98.3737 23.4922 98.6365 23.4248 98.8791 23.3305C99.1217 23.2361 99.3172 23.1014 99.4654 22.9261C99.6272 22.7374 99.7013 22.4948 99.6878 22.1983C99.6743 21.9018 99.5665 21.6591 99.3643 21.4704C99.1622 21.2817 98.8993 21.1335 98.5758 21.0256C98.2658 20.9043 97.9086 20.8032 97.5043 20.7224C97.0999 20.6415 96.6888 20.5539 96.271 20.4595C95.8397 20.3652 95.4218 20.2506 95.0175 20.1158C94.6266 19.981 94.2694 19.7991 93.9459 19.5699C93.6359 19.3408 93.3865 19.051 93.1978 18.7006C93.0091 18.3366 92.9148 17.8918 92.9148 17.3662C92.9148 16.8001 93.0496 16.3283 93.3191 15.9509C93.6022 15.56 93.9526 15.25 94.3705 15.0209C94.8018 14.7783 95.2736 14.6098 95.7857 14.5154C96.3114 14.4211 96.8101 14.3739 97.2819 14.3739C97.821 14.3739 98.3332 14.4346 98.8184 14.5559C99.3172 14.6637 99.762 14.8457 100.153 15.1018C100.557 15.3578 100.887 15.6948 101.144 16.1127C101.413 16.517 101.582 17.009 101.649 17.5886H99.243C99.1352 17.0359 98.8791 16.6653 98.4747 16.4766C98.0839 16.2879 97.6323 16.1935 97.1201 16.1935C96.9584 16.1935 96.7629 16.207 96.5338 16.234C96.3182 16.2609 96.1092 16.3148 95.9071 16.3957C95.7183 16.4631 95.5566 16.5709 95.4218 16.7192C95.287 16.854 95.2196 17.0359 95.2196 17.2651C95.2196 17.5481 95.314 17.7773 95.5027 17.9525C95.7049 18.1277 95.961 18.276 96.271 18.3973C96.5945 18.5051 96.9584 18.5995 97.3628 18.6803C97.7671 18.7612 98.1849 18.8488 98.6163 18.9432C99.0341 19.0375 99.4452 19.1521 99.8496 19.2869C100.254 19.4217 100.611 19.6036 100.921 19.8328C101.245 20.0619 101.501 20.3517 101.689 20.7021C101.892 21.0526 101.993 21.4839 101.993 21.9961C101.993 22.6161 101.851 23.1418 101.568 23.5731C101.285 24.0044 100.914 24.3549 100.456 24.6244C100.011 24.894 99.5126 25.0895 98.96 25.2108C98.4074 25.3321 97.8615 25.3927 97.3223 25.3927C96.6619 25.3927 96.0486 25.3186 95.4825 25.1703C94.9298 25.0221 94.4446 24.7997 94.0268 24.5031C93.6224 24.1931 93.2989 23.8157 93.0563 23.3709C92.8272 22.9127 92.7059 22.3735 92.6924 21.7535H94.9972Z" fill="#007BFF"/>
<path d="M87.7452 25.1096H85.5616V23.6944H85.5212C85.2112 24.3009 84.7597 24.739 84.1666 25.0085C83.5735 25.2646 82.9468 25.3927 82.2863 25.3927C81.4641 25.3927 80.743 25.2512 80.123 24.9681C79.5164 24.6716 79.011 24.274 78.6066 23.7752C78.2023 23.2765 77.899 22.6902 77.6968 22.0163C77.4946 21.3289 77.3936 20.5943 77.3936 19.8125C77.3936 18.869 77.5216 18.0535 77.7777 17.3661C78.0338 16.6787 78.3708 16.1126 78.7886 15.6678C79.2199 15.223 79.7052 14.8995 80.2443 14.6973C80.7969 14.4817 81.3563 14.3739 81.9224 14.3739C82.2459 14.3739 82.5761 14.4075 82.9131 14.4749C83.25 14.5289 83.5735 14.6232 83.8835 14.758C84.1936 14.8928 84.4766 15.068 84.7327 15.2837C85.0023 15.4858 85.2247 15.7285 85.3999 16.0115H85.4403V10.674H87.7452V25.1096ZM79.6984 19.9945C79.6984 20.4393 79.7523 20.8773 79.8602 21.3086C79.9815 21.74 80.1567 22.1241 80.3858 22.4611C80.6284 22.798 80.9317 23.0676 81.2956 23.2698C81.6596 23.472 82.0909 23.5731 82.5896 23.5731C83.1018 23.5731 83.5398 23.4652 83.9038 23.2496C84.2812 23.0339 84.5844 22.7509 84.8136 22.4004C85.0562 22.05 85.2314 21.6591 85.3392 21.2278C85.4606 20.783 85.5212 20.3314 85.5212 19.8732C85.5212 18.714 85.2584 17.8109 84.7327 17.1639C84.2205 16.517 83.5196 16.1935 82.63 16.1935C82.0909 16.1935 81.6326 16.308 81.2552 16.5372C80.8913 16.7528 80.588 17.0426 80.3454 17.4066C80.1163 17.757 79.9478 18.1614 79.8399 18.6196C79.7456 19.0644 79.6984 19.5227 79.6984 19.9945Z" fill="#007BFF"/>
<path d="M72.7227 10.674H75.0275V25.1096H72.7227V10.674Z" fill="#007BFF"/>
<path d="M64.2305 14.657H66.3938V16.6788H66.4342C66.5016 16.3957 66.6297 16.1194 66.8184 15.8498C67.0206 15.5802 67.2564 15.3376 67.526 15.122C67.8091 14.8928 68.1191 14.7109 68.456 14.5761C68.793 14.4413 69.1367 14.3739 69.4872 14.3739C69.7567 14.3739 69.9387 14.3806 70.033 14.3941C70.1409 14.4076 70.2487 14.4211 70.3565 14.4346V16.6585C70.1948 16.6316 70.0263 16.6114 69.8511 16.5979C69.6893 16.5709 69.5276 16.5574 69.3659 16.5574C68.975 16.5574 68.6043 16.6383 68.2539 16.8001C67.9169 16.9483 67.6204 17.1775 67.3643 17.4875C67.1082 17.784 66.906 18.1547 66.7577 18.5995C66.6095 19.0443 66.5353 19.5565 66.5353 20.136V25.1097H64.2305V14.657Z" fill="#007BFF"/>
<path d="M56.5875 25.3927C55.7518 25.3927 55.0037 25.2579 54.3433 24.9884C53.6963 24.7053 53.1436 24.3212 52.6854 23.8359C52.2406 23.3507 51.8969 22.7711 51.6543 22.0972C51.4251 21.4233 51.3105 20.6819 51.3105 19.8732C51.3105 19.078 51.4251 18.3434 51.6543 17.6694C51.8969 16.9955 52.2406 16.4159 52.6854 15.9307C53.1436 15.4455 53.6963 15.0681 54.3433 14.7985C55.0037 14.5154 55.7518 14.3739 56.5875 14.3739C57.4231 14.3739 58.1645 14.5154 58.8114 14.7985C59.4719 15.0681 60.0245 15.4455 60.4693 15.9307C60.9276 16.4159 61.2713 16.9955 61.5004 17.6694C61.7431 18.3434 61.8644 19.078 61.8644 19.8732C61.8644 20.6819 61.7431 21.4233 61.5004 22.0972C61.2713 22.7711 60.9276 23.3507 60.4693 23.8359C60.0245 24.3212 59.4719 24.7053 58.8114 24.9884C58.1645 25.2579 57.4231 25.3927 56.5875 25.3927ZM56.5875 23.5731C57.0996 23.5731 57.5444 23.4653 57.9218 23.2496C58.2993 23.034 58.6093 22.7509 58.8519 22.4005C59.0945 22.05 59.2697 21.6591 59.3775 21.2278C59.4989 20.783 59.5595 20.3315 59.5595 19.8732C59.5595 19.4284 59.4989 18.9836 59.3775 18.5388C59.2697 18.094 59.0945 17.7031 58.8519 17.3662C58.6093 17.0157 58.2993 16.7327 57.9218 16.517C57.5444 16.3014 57.0996 16.1935 56.5875 16.1935C56.0753 16.1935 55.6305 16.3014 55.2531 16.517C54.8757 16.7327 54.5657 17.0157 54.323 17.3662C54.0804 17.7031 53.8985 18.094 53.7771 18.5388C53.6693 18.9836 53.6154 19.4284 53.6154 19.8732C53.6154 20.3315 53.6693 20.783 53.7771 21.2278C53.8985 21.6591 54.0804 22.05 54.323 22.4005C54.5657 22.7509 54.8757 23.034 55.2531 23.2496C55.6305 23.4653 56.0753 23.5731 56.5875 23.5731Z" fill="#007BFF"/>
<path d="M32.1006 10.674H34.6683L37.2764 21.713H37.3168L40.2282 10.674H42.8161L45.6467 21.713H45.6871L48.3761 10.674H50.9438L46.9608 25.1096H44.3932L41.502 14.0706H41.4615L38.5097 25.1096H35.9016L32.1006 10.674Z" fill="#007BFF"/>
<path d="M3.74892 5.14111C3.74892 2.47987 5.91687 0.32251 8.59117 0.32251H13.5096C16.1839 0.32251 18.3519 2.47987 18.3519 5.14111V17.0595C18.3519 21.0723 15.0829 24.3253 11.0504 24.3253C7.0179 24.3253 3.74892 21.0723 3.74892 17.0595V5.14111Z" fill="#007BFF"/>
<path d="M7.03897 24.5161C6.71371 24.402 6.35153 24.5062 6.13761 24.7754L1.69499 30.3659C1.43893 30.6882 1.29962 31.087 1.29962 31.4978C1.29962 32.5055 2.12059 33.3225 3.13331 33.3225L10.2434 33.3225C10.6891 33.3225 11.0504 32.9629 11.0504 32.5194V31.6666C11.0504 31.223 10.6891 30.8635 10.2434 30.8635L6.40136 30.8635C5.73762 30.8635 5.35765 30.1105 5.75405 29.5808L8.36846 26.0866C8.69325 25.6525 8.50239 25.0295 7.98947 24.8496L7.03897 24.5161Z" fill="#007BFF"/>
<path d="M0 11.7378C0 11.2942 0.361325 10.9347 0.807041 10.9347H2.01822C2.46394 10.9347 2.82526 11.2942 2.82526 11.7378V16.4538C2.82526 16.8974 2.46394 17.2569 2.01822 17.2569H0.807041C0.361325 17.2569 0 16.8974 0 16.4538V11.7378Z" fill="#007BFF"/>
<path d="M19.2755 11.7378C19.2755 11.2942 19.6368 10.9347 20.0826 10.9347H21.2937C21.7395 10.9347 22.1008 11.2942 22.1008 11.7378V16.4538C22.1008 16.8974 21.7395 17.2569 21.2937 17.2569H20.0826C19.6368 17.2569 19.2755 16.8974 19.2755 16.4538V11.7378Z" fill="#007BFF"/>
</svg>
