<svg width="870" height="500" viewBox="0 0 870 500" fill="none" xmlns="http://www.w3.org/2000/svg">
<path d="M-606.433 529.919C-464.504 492.718 -349.35 479.126 -260.971 489.145C-172.592 499.163 -110.897 465.329 -75.8838 387.644C-40.8709 309.96 5.84527 251.508 64.2648 212.291C122.684 173.073 204.663 172.573 310.201 210.791C415.739 249.009 479.125 217.955 500.36 117.627C521.596 17.2998 585.824 -12.3716 693.045 28.6131C800.266 69.5977 850.366 16.707 843.344 -130.059C836.322 -276.825 881.58 -337.673 979.118 -312.602C1076.66 -287.532 1119.03 -285.509 1106.23 -306.535" stroke="url(#paint0_linear_225_1020)" stroke-width="4"/>
<defs>
<linearGradient id="paint0_linear_225_1020" x1="204.234" y1="36.6421" x2="361.965" y2="295.862" gradientUnits="userSpaceOnUse">
<stop stop-color="white"/>
<stop offset="1" stop-color="white" stop-opacity="0.5"/>
</linearGradient>
</defs>
</svg>
