<svg width="21" height="22" viewBox="0 0 21 22" fill="none" xmlns="http://www.w3.org/2000/svg">
<path d="M13.8416 9.94441C14.1249 9.65457 14.1227 9.18693 13.8366 8.89989C13.5504 8.61286 13.0888 8.61512 12.8054 8.90495L8.7135 13.0903C8.43606 13.3741 8.43157 13.8298 8.70334 14.1192L9.79566 15.282L7.74377 18.0803C7.50897 18.4005 7.0154 18.3199 6.89196 17.9411L5.20254 12.7571C5.16218 12.6333 5.07496 12.5307 4.96003 12.4719L2.01703 10.9668C1.64212 10.7751 1.66751 10.2244 2.05844 10.0689L18.5857 3.49493C18.953 3.34882 19.33 3.68357 19.2352 4.0716L15.5774 19.0368C15.5614 19.1024 15.534 19.1604 15.4983 19.21L10.2477 13.6203L13.8416 9.94441Z" fill="#ACACAC"/>
</svg>
