<svg width="24" height="25" viewBox="0 0 24 25" fill="none" xmlns="http://www.w3.org/2000/svg">
<g clip-path="url(#clip0_2113_925)">
<path fill-rule="evenodd" clip-rule="evenodd" d="M12 4.83496C12.855 4.83496 13.732 4.85696 14.582 4.89296L15.586 4.94096L16.547 4.99796L17.447 5.05896L18.269 5.12296C19.1612 5.19085 20.0008 5.5714 20.64 6.19756C21.2791 6.82373 21.6768 7.65536 21.763 8.54596L21.803 8.97096L21.878 9.88096C21.948 10.824 22 11.852 22 12.835C22 13.818 21.948 14.846 21.878 15.789L21.803 16.699L21.763 17.124C21.6768 18.0147 21.2789 18.8465 20.6396 19.4727C20.0002 20.0989 19.1604 20.4793 18.268 20.547L17.448 20.61L16.548 20.672L15.586 20.729L14.582 20.777C13.7218 20.8142 12.861 20.8336 12 20.835C11.139 20.8336 10.2782 20.8142 9.418 20.777L8.414 20.729L7.453 20.672L6.553 20.61L5.731 20.547C4.83881 20.4791 3.9992 20.0985 3.36004 19.4724C2.72089 18.8462 2.32319 18.0146 2.237 17.124L2.197 16.699L2.122 15.789C2.04583 14.8061 2.00514 13.8208 2 12.835C2 11.852 2.052 10.824 2.122 9.88096L2.197 8.97096L2.237 8.54596C2.32316 7.65551 2.72071 6.82401 3.35966 6.19787C3.99861 5.57172 4.83799 5.19108 5.73 5.12296L6.551 5.05896L7.451 4.99796L8.413 4.94096L9.417 4.89296C10.2775 4.85569 11.1387 4.83635 12 4.83496ZM10 10.41V15.26C10 15.722 10.5 16.01 10.9 15.78L15.1 13.355C15.1914 13.3024 15.2673 13.2266 15.3201 13.1353C15.3729 13.044 15.4007 12.9404 15.4007 12.835C15.4007 12.7295 15.3729 12.6259 15.3201 12.5346C15.2673 12.4433 15.1914 12.3676 15.1 12.315L10.9 9.89096C10.8088 9.83828 10.7053 9.81056 10.5999 9.81058C10.4945 9.81059 10.3911 9.83835 10.2998 9.89106C10.2086 9.94376 10.1329 10.0196 10.0802 10.1108C10.0276 10.2021 9.99993 10.3056 10 10.411V10.41Z" fill="#ACACAC"/>
</g>
<defs>
<clipPath id="clip0_2113_925">
<rect width="24" height="24" fill="white" transform="translate(0 0.834961)"/>
</clipPath>
</defs>
</svg>
